<svg width="20" height="20" viewBox="0 0 20 20" fill="none" xmlns="http://www.w3.org/2000/svg">
<mask id="mask0_405_2026" style="mask-type:alpha" maskUnits="userSpaceOnUse" x="0" y="0" width="20" height="20">
<rect width="20" height="20" fill="#D9D9D9"/>
</mask>
<g mask="url(#mask0_405_2026)">
<path d="M9.9998 10.0003C10.4581 10.0003 10.8505 9.83713 11.1769 9.51074C11.5033 9.18435 11.6665 8.79199 11.6665 8.33366C11.6665 7.87532 11.5033 7.48296 11.1769 7.15657C10.8505 6.83019 10.4581 6.66699 9.9998 6.66699C9.54146 6.66699 9.1491 6.83019 8.82271 7.15657C8.49632 7.48296 8.33313 7.87532 8.33313 8.33366C8.33313 8.79199 8.49632 9.18435 8.82271 9.51074C9.1491 9.83713 9.54146 10.0003 9.9998 10.0003ZM9.9998 16.1253C11.6942 14.5698 12.9512 13.1566 13.7706 11.8857C14.5901 10.6149 14.9998 9.48643 14.9998 8.50032C14.9998 6.98644 14.5172 5.74685 13.5519 4.78157C12.5866 3.8163 11.4026 3.33366 9.9998 3.33366C8.59702 3.33366 7.41299 3.8163 6.44771 4.78157C5.48244 5.74685 4.9998 6.98644 4.9998 8.50032C4.9998 9.48643 5.40952 10.6149 6.22896 11.8857C7.04841 13.1566 8.30535 14.5698 9.9998 16.1253ZM9.9998 18.3337C7.76368 16.4309 6.09355 14.6635 4.98938 13.0316C3.88521 11.3996 3.33313 9.88921 3.33313 8.50032C3.33313 6.41699 4.00327 4.75727 5.34355 3.52116C6.68382 2.28505 8.23591 1.66699 9.9998 1.66699C11.7637 1.66699 13.3158 2.28505 14.656 3.52116C15.9963 4.75727 16.6665 6.41699 16.6665 8.50032C16.6665 9.88921 16.1144 11.3996 15.0102 13.0316C13.906 14.6635 12.2359 16.4309 9.9998 18.3337Z" fill="#2194FF"/>
</g>
</svg>
