<svg width="90" height="30" viewBox="0 0 90 30" fill="none" xmlns="http://www.w3.org/2000/svg">
<path d="M2.80868 22.5V11.7H0.053125V9.16667H2.87535V5.56667C2.87535 4.04074 3.31979 2.88518 4.20868 2.1C5.09757 1.3 6.17905 0.9 7.45312 0.9C7.9272 0.9 8.39387 0.959259 8.85313 1.07778C9.3272 1.18148 9.75683 1.35185 10.142 1.58889L9.47535 4.32222C8.95683 3.71481 8.34201 3.41111 7.6309 3.41111C7.20127 3.41111 6.80127 3.55926 6.4309 3.85555C6.06053 4.15185 5.87535 4.71481 5.87535 5.54444V9.16667H8.85313V11.7H5.94201V22.5H2.80868ZM11.2753 22.5V9.16667H14.4087V22.5H11.2753ZM12.8531 7.01111C12.3346 7.01111 11.8976 6.83333 11.542 6.47778C11.1865 6.10741 11.0087 5.67037 11.0087 5.16667C11.0087 4.63333 11.1865 4.1963 11.542 3.85555C11.9124 3.5 12.3494 3.32222 12.8531 3.32222C13.3865 3.32222 13.8235 3.5 14.1642 3.85555C14.5198 4.21111 14.6976 4.64815 14.6976 5.16667C14.6976 5.68519 14.5198 6.12222 14.1642 6.47778C13.8087 6.83333 13.3716 7.01111 12.8531 7.01111ZM19.5899 22.5V11.7H16.8344V9.16667H19.6566V4.72222H22.6566V9.16667H25.6344V11.7H22.7233V22.5H19.5899ZM28.0344 29.1667V9.16667H30.8122V10.7C31.3751 10.137 32.0344 9.7 32.7899 9.38889C33.5455 9.06296 34.3603 8.9 35.2344 8.9C36.464 8.9 37.5825 9.21111 38.5899 9.83333C39.5973 10.4556 40.3973 11.2926 40.9899 12.3444C41.5973 13.3963 41.901 14.5593 41.901 15.8333C41.901 17.1074 41.5973 18.2704 40.9899 19.3222C40.3973 20.3741 39.5973 21.2111 38.5899 21.8333C37.5825 22.4556 36.464 22.7667 35.2344 22.7667C34.4492 22.7667 33.7084 22.6407 33.0122 22.3889C32.3307 22.1222 31.7159 21.7593 31.1677 21.3V29.1667H28.0344ZM34.8566 19.9667C35.5973 19.9667 36.2714 19.7815 36.8788 19.4111C37.501 19.0407 37.9899 18.5444 38.3455 17.9222C38.7159 17.3 38.901 16.6037 38.901 15.8333C38.901 15.0778 38.7159 14.3889 38.3455 13.7667C37.9899 13.1296 37.5084 12.6259 36.901 12.2556C36.2936 11.8852 35.6122 11.7 34.8566 11.7C34.1159 11.7 33.4344 11.8852 32.8122 12.2556C32.2047 12.6259 31.7159 13.1222 31.3455 13.7444C30.9899 14.3667 30.8122 15.063 30.8122 15.8333C30.8122 16.5889 30.9899 17.2852 31.3455 17.9222C31.7159 18.5444 32.2047 19.0407 32.8122 19.4111C33.4196 19.7815 34.101 19.9667 34.8566 19.9667ZM51.0017 22.8556C49.698 22.8556 48.5054 22.5444 47.424 21.9222C46.3425 21.2852 45.4832 20.4333 44.8462 19.3667C44.2091 18.3 43.8906 17.1222 43.8906 15.8333C43.8906 14.5296 44.2091 13.3519 44.8462 12.3C45.4832 11.2333 46.3425 10.3889 47.424 9.76667C48.5054 9.12963 49.698 8.81111 51.0017 8.81111C52.3203 8.81111 53.5128 9.12963 54.5795 9.76667C55.661 10.3889 56.5203 11.2333 57.1573 12.3C57.7943 13.3519 58.1128 14.5296 58.1128 15.8333C58.1128 17.1222 57.7943 18.3 57.1573 19.3667C56.5203 20.4333 55.661 21.2852 54.5795 21.9222C53.5128 22.5444 52.3203 22.8556 51.0017 22.8556ZM51.0017 19.9889C51.7573 19.9889 52.4462 19.8037 53.0684 19.4333C53.6906 19.0481 54.1795 18.5444 54.5351 17.9222C54.9054 17.3 55.0906 16.6037 55.0906 15.8333C55.0906 15.063 54.9054 14.3667 54.5351 13.7444C54.1795 13.1222 53.6906 12.6259 53.0684 12.2556C52.4462 11.8704 51.7573 11.6778 51.0017 11.6778C50.2462 11.6778 49.5573 11.8704 48.9351 12.2556C48.3128 12.6259 47.8166 13.1222 47.4462 13.7444C47.0906 14.3667 46.9128 15.063 46.9128 15.8333C46.9128 16.6037 47.0906 17.3 47.4462 17.9222C47.8166 18.5444 48.3054 19.0481 48.9128 19.4333C49.5351 19.8037 50.2314 19.9889 51.0017 19.9889ZM60.9094 22.5V9.16667H63.7538V10.9667C64.2427 10.2704 64.8501 9.73704 65.576 9.36667C66.3168 8.9963 67.1168 8.81111 67.976 8.81111C68.9242 8.81111 69.8057 9.04074 70.6205 9.5C71.4353 9.95926 72.0946 10.6259 72.5983 11.5C73.102 12.3741 73.3538 13.4333 73.3538 14.6778V22.5H70.2205V15.1C70.2205 14.2111 69.9464 13.4185 69.3983 12.7222C68.8649 12.0259 68.1094 11.6778 67.1316 11.6778C66.3316 11.6778 65.6131 11.9593 64.976 12.5222C64.3538 13.0852 64.0427 13.9222 64.0427 15.0333V22.5H60.9094ZM82.5573 22.7667C81.3277 22.7667 80.2091 22.4556 79.2017 21.8333C78.1943 21.2111 77.3869 20.3741 76.7795 19.3222C76.1869 18.2704 75.8906 17.1074 75.8906 15.8333C75.8906 14.5593 76.1869 13.3963 76.7795 12.3444C77.3869 11.2926 78.1943 10.4556 79.2017 9.83333C80.2091 9.21111 81.3277 8.9 82.5573 8.9C83.3425 8.9 84.0758 9.03333 84.7573 9.3C85.4536 9.55185 86.0758 9.90741 86.624 10.3667V1.16667H89.7573V22.5H86.9795V20.9667C86.4314 21.5296 85.7721 21.9741 85.0017 22.3C84.2462 22.6111 83.4314 22.7667 82.5573 22.7667ZM82.9351 19.9667C83.6758 19.9667 84.3499 19.7815 84.9573 19.4111C85.5795 19.0407 86.0684 18.5444 86.424 17.9222C86.7943 17.3 86.9795 16.6037 86.9795 15.8333C86.9795 15.0778 86.7943 14.3889 86.424 13.7667C86.0684 13.1296 85.5869 12.6259 84.9795 12.2556C84.3721 11.8852 83.6906 11.7 82.9351 11.7C82.1943 11.7 81.5128 11.8852 80.8906 12.2556C80.2832 12.6259 79.7943 13.1222 79.424 13.7444C79.0684 14.3667 78.8906 15.063 78.8906 15.8333C78.8906 16.5889 79.0684 17.2852 79.424 17.9222C79.7943 18.5444 80.2832 19.0407 80.8906 19.4111C81.498 19.7815 82.1795 19.9667 82.9351 19.9667Z" fill="white"/>
</svg>
