<svg width="20" height="20" viewBox="0 0 20 20" fill="none" xmlns="http://www.w3.org/2000/svg">
<mask id="mask0_405_2031" style="mask-type:alpha" maskUnits="userSpaceOnUse" x="0" y="0" width="20" height="20">
<rect width="20" height="20" fill="#D9D9D9"/>
</mask>
<g mask="url(#mask0_405_2031)">
<path d="M5.83335 19.1663C5.37502 19.1663 4.98266 19.0031 4.65627 18.6768C4.32988 18.3504 4.16669 17.958 4.16669 17.4997V2.49967C4.16669 2.04134 4.32988 1.64898 4.65627 1.32259C4.98266 0.996202 5.37502 0.833008 5.83335 0.833008H14.1667C14.625 0.833008 15.0174 0.996202 15.3438 1.32259C15.6702 1.64898 15.8334 2.04134 15.8334 2.49967V17.4997C15.8334 17.958 15.6702 18.3504 15.3438 18.6768C15.0174 19.0031 14.625 19.1663 14.1667 19.1663H5.83335ZM5.83335 14.9997V17.4997H14.1667V14.9997H5.83335ZM10 17.083C10.2361 17.083 10.434 17.0031 10.5938 16.8434C10.7535 16.6837 10.8334 16.4858 10.8334 16.2497C10.8334 16.0136 10.7535 15.8156 10.5938 15.6559C10.434 15.4962 10.2361 15.4163 10 15.4163C9.76391 15.4163 9.56599 15.4962 9.40627 15.6559C9.24655 15.8156 9.16669 16.0136 9.16669 16.2497C9.16669 16.4858 9.24655 16.6837 9.40627 16.8434C9.56599 17.0031 9.76391 17.083 10 17.083ZM5.83335 13.333H14.1667V4.99967H5.83335V13.333ZM5.83335 3.33301H14.1667V2.49967H5.83335V3.33301Z" fill="#2194FF"/>
</g>
</svg>
