<svg width="20" height="20" viewBox="0 0 20 20" fill="none" xmlns="http://www.w3.org/2000/svg">
<mask id="mask0_405_2041" style="mask-type:alpha" maskUnits="userSpaceOnUse" x="0" y="0" width="20" height="20">
<rect width="20" height="20" fill="#D9D9D9"/>
</mask>
<g mask="url(#mask0_405_2041)">
<path d="M10 10.0003C9.29169 10.0003 8.69794 9.76074 8.21877 9.28158C7.7396 8.80241 7.50002 8.20866 7.50002 7.50033C7.50002 6.80588 7.7396 6.2156 8.21877 5.72949C8.69794 5.24338 9.29169 5.00033 10 5.00033C10.6945 5.00033 11.2847 5.24338 11.7709 5.72949C12.257 6.2156 12.5 6.80588 12.5 7.50033C12.5 8.20866 12.257 8.80241 11.7709 9.28158C11.2847 9.76074 10.6945 10.0003 10 10.0003ZM10 8.33366C10.2361 8.33366 10.434 8.2538 10.5938 8.09408C10.7535 7.93435 10.8334 7.73644 10.8334 7.50033C10.8334 7.26421 10.7535 7.0663 10.5938 6.90658C10.434 6.74685 10.2361 6.66699 10 6.66699C9.76391 6.66699 9.56599 6.74685 9.40627 6.90658C9.24655 7.0663 9.16669 7.26421 9.16669 7.50033C9.16669 7.73644 9.24655 7.93435 9.40627 8.09408C9.56599 8.2538 9.76391 8.33366 10 8.33366ZM5.00002 14.167V13.417C5.00002 13.1253 5.07294 12.851 5.21877 12.5941C5.3646 12.3371 5.56252 12.1323 5.81252 11.9795C6.45141 11.6045 7.12155 11.3198 7.82294 11.1253C8.52433 10.9309 9.25002 10.8337 10 10.8337C10.75 10.8337 11.4757 10.9309 12.1771 11.1253C12.8785 11.3198 13.5486 11.6045 14.1875 11.9795C14.4375 12.1323 14.6354 12.3371 14.7813 12.5941C14.9271 12.851 15 13.1253 15 13.417V14.167C15 14.4031 14.9202 14.601 14.7604 14.7607C14.6007 14.9205 14.4028 15.0003 14.1667 15.0003H5.83335C5.59724 15.0003 5.39933 14.9205 5.2396 14.7607C5.07988 14.601 5.00002 14.4031 5.00002 14.167ZM10 12.5003C9.43058 12.5003 8.87502 12.5698 8.33335 12.7087C7.79169 12.8475 7.2778 13.0559 6.79169 13.3337H13.2084C12.7222 13.0559 12.2084 12.8475 11.6667 12.7087C11.125 12.5698 10.5695 12.5003 10 12.5003ZM3.33335 18.3337C2.87502 18.3337 2.48266 18.1705 2.15627 17.8441C1.82988 17.5177 1.66669 17.1253 1.66669 16.667V14.167C1.66669 13.9309 1.74655 13.733 1.90627 13.5732C2.06599 13.4135 2.26391 13.3337 2.50002 13.3337C2.73613 13.3337 2.93405 13.4135 3.09377 13.5732C3.25349 13.733 3.33335 13.9309 3.33335 14.167V16.667H5.83335C6.06946 16.667 6.26738 16.7469 6.4271 16.9066C6.58683 17.0663 6.66669 17.2642 6.66669 17.5003C6.66669 17.7364 6.58683 17.9344 6.4271 18.0941C6.26738 18.2538 6.06946 18.3337 5.83335 18.3337H3.33335ZM1.66669 5.83366V3.33366C1.66669 2.87533 1.82988 2.48296 2.15627 2.15658C2.48266 1.83019 2.87502 1.66699 3.33335 1.66699H5.83335C6.06946 1.66699 6.26738 1.74685 6.4271 1.90658C6.58683 2.0663 6.66669 2.26421 6.66669 2.50033C6.66669 2.73644 6.58683 2.93435 6.4271 3.09408C6.26738 3.2538 6.06946 3.33366 5.83335 3.33366H3.33335V5.83366C3.33335 6.06977 3.25349 6.26769 3.09377 6.42741C2.93405 6.58713 2.73613 6.66699 2.50002 6.66699C2.26391 6.66699 2.06599 6.58713 1.90627 6.42741C1.74655 6.26769 1.66669 6.06977 1.66669 5.83366ZM16.6667 18.3337H14.1667C13.9306 18.3337 13.7327 18.2538 13.5729 18.0941C13.4132 17.9344 13.3334 17.7364 13.3334 17.5003C13.3334 17.2642 13.4132 17.0663 13.5729 16.9066C13.7327 16.7469 13.9306 16.667 14.1667 16.667H16.6667V14.167C16.6667 13.9309 16.7465 13.733 16.9063 13.5732C17.066 13.4135 17.2639 13.3337 17.5 13.3337C17.7361 13.3337 17.934 13.4135 18.0938 13.5732C18.2535 13.733 18.3334 13.9309 18.3334 14.167V16.667C18.3334 17.1253 18.1702 17.5177 17.8438 17.8441C17.5174 18.1705 17.125 18.3337 16.6667 18.3337ZM16.6667 5.83366V3.33366H14.1667C13.9306 3.33366 13.7327 3.2538 13.5729 3.09408C13.4132 2.93435 13.3334 2.73644 13.3334 2.50033C13.3334 2.26421 13.4132 2.0663 13.5729 1.90658C13.7327 1.74685 13.9306 1.66699 14.1667 1.66699H16.6667C17.125 1.66699 17.5174 1.83019 17.8438 2.15658C18.1702 2.48296 18.3334 2.87533 18.3334 3.33366V5.83366C18.3334 6.06977 18.2535 6.26769 18.0938 6.42741C17.934 6.58713 17.7361 6.66699 17.5 6.66699C17.2639 6.66699 17.066 6.58713 16.9063 6.42741C16.7465 6.26769 16.6667 6.06977 16.6667 5.83366Z" fill="#2194FF"/>
</g>
</svg>
