<svg width="113" height="36" viewBox="0 0 113 36" fill="none" xmlns="http://www.w3.org/2000/svg">
<path d="M4.67752 27V12.8333H0.89974V10.3333H4.76085V5.55556C4.76085 3.74074 5.29789 2.36111 6.37196 1.41667C7.44604 0.472222 8.72381 -4.76837e-07 10.2053 -4.76837e-07C10.7609 -4.76837e-07 11.3257 0.0648144 11.8997 0.194444C12.4923 0.324074 13.0479 0.546296 13.5664 0.86111L12.8442 3.77778C12.0664 2.92593 11.159 2.5 10.122 2.5C9.49233 2.5 8.909 2.71296 8.37196 3.13889C7.85344 3.56481 7.59418 4.38889 7.59418 5.61111V10.3333H11.7331V12.8333H7.67752V27H4.67752ZM15.2331 27V10.3333H18.2331V27H15.2331ZM16.7331 7.33333C16.1775 7.33333 15.7053 7.13889 15.3164 6.75C14.9275 6.36111 14.7331 5.88889 14.7331 5.33333C14.7331 4.75926 14.9275 4.28704 15.3164 3.91667C15.7053 3.52778 16.1775 3.33333 16.7331 3.33333C17.3071 3.33333 17.7794 3.52778 18.1497 3.91667C18.5386 4.28704 18.7331 4.75926 18.7331 5.33333C18.7331 5.88889 18.5386 6.36111 18.1497 6.75C17.7794 7.13889 17.3071 7.33333 16.7331 7.33333ZM25.4978 27V12.8333H21.7201V10.3333H25.5812V4.77778H28.4145V10.3333H32.5534V12.8333H28.4978V27H25.4978ZM35.2201 35.3333V10.3333H39.3867V11.9722C40.0349 11.3241 40.7941 10.8148 41.6645 10.4444C42.5534 10.0741 43.5256 9.88889 44.5812 9.88889C46.1367 9.88889 47.5441 10.287 48.8034 11.0833C50.0626 11.8611 51.0626 12.9167 51.8034 14.25C52.5626 15.5833 52.9423 17.0556 52.9423 18.6667C52.9423 20.2778 52.5626 21.75 51.8034 23.0833C51.0626 24.3981 50.0626 25.4537 48.8034 26.25C47.5441 27.0463 46.1367 27.4444 44.5812 27.4444C43.6923 27.4444 42.8682 27.3056 42.1089 27.0278C41.3497 26.7685 40.6645 26.4074 40.0534 25.9444V35.3333H35.2201ZM44.0256 23.1944C44.8404 23.1944 45.5812 22.9907 46.2478 22.5833C46.9145 22.1759 47.4423 21.6296 47.8312 20.9444C48.2386 20.2593 48.4423 19.5 48.4423 18.6667C48.4423 17.8333 48.2386 17.0741 47.8312 16.3889C47.4423 15.7037 46.9145 15.1574 46.2478 14.75C45.5812 14.3426 44.8404 14.1389 44.0256 14.1389C43.2108 14.1389 42.4701 14.3426 41.8034 14.75C41.1367 15.1574 40.5997 15.7037 40.1923 16.3889C39.8034 17.0741 39.6089 17.8333 39.6089 18.6667C39.6089 19.5 39.8034 20.2593 40.1923 20.9444C40.5997 21.6296 41.1367 22.1759 41.8034 22.5833C42.4701 22.9907 43.2108 23.1944 44.0256 23.1944ZM63.9336 27.5556C62.2854 27.5556 60.7762 27.1574 59.4058 26.3611C58.0354 25.5648 56.9429 24.4907 56.128 23.1389C55.3317 21.787 54.9336 20.2963 54.9336 18.6667C54.9336 17.0185 55.3317 15.5278 56.128 14.1944C56.9429 12.8426 58.0354 11.7685 59.4058 10.9722C60.7762 10.1759 62.2854 9.77778 63.9336 9.77778C65.6003 9.77778 67.1095 10.1759 68.4614 10.9722C69.8317 11.7685 70.9151 12.8426 71.7114 14.1944C72.5262 15.5278 72.9336 17.0185 72.9336 18.6667C72.9336 20.2963 72.5262 21.787 71.7114 23.1389C70.9151 24.4907 69.8317 25.5648 68.4614 26.3611C67.1095 27.1574 65.6003 27.5556 63.9336 27.5556ZM63.9336 23.2222C64.7669 23.2222 65.5169 23.0185 66.1836 22.6111C66.8688 22.2037 67.4058 21.6574 67.7947 20.9722C68.2021 20.2685 68.4058 19.5 68.4058 18.6667C68.4058 17.8148 68.2021 17.0463 67.7947 16.3611C67.4058 15.6759 66.8688 15.1296 66.1836 14.7222C65.5169 14.3148 64.7669 14.1111 63.9336 14.1111C63.1003 14.1111 62.341 14.3148 61.6558 14.7222C60.9891 15.1296 60.4521 15.6759 60.0447 16.3611C59.6558 17.0463 59.4614 17.8148 59.4614 18.6667C59.4614 19.5 59.6558 20.2685 60.0447 20.9722C60.4521 21.6574 60.9891 22.2037 61.6558 22.6111C62.341 23.0185 63.1003 23.2222 63.9336 23.2222ZM75.7669 27V10.3333H80.1003V12.1667C80.6929 11.3889 81.4243 10.7963 82.2947 10.3889C83.1651 9.98148 84.1003 9.77778 85.1003 9.77778C86.2854 9.77778 87.3873 10.0648 88.4058 10.6389C89.4429 11.1944 90.2762 12.0185 90.9058 13.1111C91.554 14.1852 91.878 15.4907 91.878 17.0278V27H87.0447V17.6667C87.0447 16.7407 86.7669 15.9167 86.2114 15.1944C85.6558 14.4722 84.8595 14.1111 83.8225 14.1111C82.9891 14.1111 82.2391 14.3981 81.5725 14.9722C80.9243 15.5278 80.6003 16.4074 80.6003 17.6111V27H75.7669ZM102.748 27.4444C101.192 27.4444 99.7849 27.0463 98.5256 26.25C97.2663 25.4537 96.2571 24.3981 95.4978 23.0833C94.7571 21.75 94.3867 20.2778 94.3867 18.6667C94.3867 17.0556 94.7571 15.5833 95.4978 14.25C96.2571 12.9167 97.2663 11.8611 98.5256 11.0833C99.7849 10.287 101.192 9.88889 102.748 9.88889C103.637 9.88889 104.461 10.0185 105.22 10.2778C105.979 10.537 106.664 10.9074 107.276 11.3889V0.333333H112.109V27H107.942V25.3611C107.313 26.0093 106.553 26.5185 105.664 26.8889C104.776 27.2593 103.803 27.4444 102.748 27.4444ZM103.303 23.1944C104.118 23.1944 104.859 22.9907 105.526 22.5833C106.192 22.1759 106.72 21.6296 107.109 20.9444C107.516 20.2593 107.72 19.5 107.72 18.6667C107.72 17.8333 107.516 17.0741 107.109 16.3889C106.72 15.7037 106.192 15.1574 105.526 14.75C104.859 14.3426 104.118 14.1389 103.303 14.1389C102.489 14.1389 101.748 14.3426 101.081 14.75C100.414 15.1574 99.8775 15.7037 99.4701 16.3889C99.0812 17.0741 98.8867 17.8333 98.8867 18.6667C98.8867 19.5 99.0812 20.2593 99.4701 20.9444C99.8775 21.6296 100.414 22.1759 101.081 22.5833C101.748 22.9907 102.489 23.1944 103.303 23.1944Z" fill="#2194FF"/>
</svg>
